<svg xmlns="http://www.w3.org/2000/svg" x="0px" y="0px"
width="24" height="24"
viewBox="0 0 172 172"
style=" fill:#fa314a;"><g fill="none" fill-rule="nonzero" stroke="none" stroke-width="1" stroke-linecap="butt" stroke-linejoin="miter" stroke-miterlimit="10" stroke-dasharray="" stroke-dashoffset="0" font-family="none" font-weight="none" font-size="none" text-anchor="none" style="mix-blend-mode: normal"><path d="M0,172v-172h172v172z" fill="none"></path><g fill="#eb5757"><path d="M137.6,22.93333h-103.2c-6.33533,0 -11.46667,5.13133 -11.46667,11.46667v103.2c0,6.33533 5.13133,11.46667 11.46667,11.46667h103.2c6.33533,0 11.46667,-5.13133 11.46667,-11.46667v-103.2c0,-6.33533 -5.13707,-11.46667 -11.46667,-11.46667zM124.45347,67.12013l-43.344,43.344c-1.07787,1.07787 -2.53413,1.67987 -4.05347,1.67987c-1.51933,0 -2.98133,-0.602 -4.05347,-1.67987l-19.7972,-19.7972c-2.24173,-2.24173 -2.24173,-5.8652 0,-8.10693c2.24173,-2.24173 5.8652,-2.24173 8.10693,0l15.74373,15.74373l39.29053,-39.29053c2.24173,-2.24173 5.8652,-2.24173 8.10693,0c2.24173,2.24173 2.24173,5.8652 0,8.10693z"></path></g></g></svg>
