<svg width="16" height="18" viewBox="0 0 16 18" fill="none" xmlns="http://www.w3.org/2000/svg">
<path d="M14.875 2.75H11.125V1.8125C11.125 1.3981 10.9604 1.00067 10.6674 0.707646C10.3743 0.41462 9.9769 0.25 9.5625 0.25H6.4375C6.0231 0.25 5.62567 0.41462 5.33265 0.707646C5.03962 1.00067 4.875 1.3981 4.875 1.8125V2.75H1.125C0.95924 2.75 0.800269 2.81585 0.683058 2.93306C0.565848 3.05027 0.5 3.20924 0.5 3.375C0.5 3.54076 0.565848 3.69973 0.683058 3.81694C0.800269 3.93415 0.95924 4 1.125 4H1.78906L2.53125 15.9109C2.58672 16.9598 3.39062 17.75 4.40625 17.75H11.5938C12.6145 17.75 13.4023 16.9773 13.4688 15.9141L14.2109 4H14.875C15.0408 4 15.1997 3.93415 15.3169 3.81694C15.4342 3.69973 15.5 3.54076 15.5 3.375C15.5 3.20924 15.4342 3.05027 15.3169 2.93306C15.1997 2.81585 15.0408 2.75 14.875 2.75ZM5.52227 15.25H5.5C5.33803 15.2501 5.18234 15.1873 5.06575 15.0749C4.94916 14.9624 4.88077 14.8091 4.875 14.6473L4.5625 5.89727C4.55659 5.73151 4.61678 5.57019 4.72981 5.4488C4.84285 5.32742 4.99947 5.25591 5.16523 5.25C5.33099 5.24409 5.49231 5.30428 5.6137 5.41731C5.73508 5.53035 5.80659 5.68697 5.8125 5.85273L6.125 14.6027C6.12798 14.6848 6.11474 14.7667 6.08605 14.8437C6.05737 14.9206 6.01378 14.9912 5.95781 15.0513C5.90183 15.1114 5.83455 15.1599 5.75981 15.194C5.68508 15.2281 5.60436 15.2471 5.52227 15.25ZM8.625 14.625C8.625 14.7908 8.55915 14.9497 8.44194 15.0669C8.32473 15.1842 8.16576 15.25 8 15.25C7.83424 15.25 7.67527 15.1842 7.55806 15.0669C7.44085 14.9497 7.375 14.7908 7.375 14.625V5.875C7.375 5.70924 7.44085 5.55027 7.55806 5.43306C7.67527 5.31585 7.83424 5.25 8 5.25C8.16576 5.25 8.32473 5.31585 8.44194 5.43306C8.55915 5.55027 8.625 5.70924 8.625 5.875V14.625ZM9.875 2.75H6.125V1.8125C6.12453 1.77133 6.13229 1.73048 6.14783 1.69236C6.16337 1.65423 6.18637 1.61959 6.21548 1.59048C6.24459 1.56137 6.27923 1.53837 6.31736 1.52283C6.35548 1.50729 6.39633 1.49953 6.4375 1.5H9.5625C9.60367 1.49953 9.64452 1.50729 9.68264 1.52283C9.72077 1.53837 9.75541 1.56137 9.78452 1.59048C9.81363 1.61959 9.83663 1.65423 9.85217 1.69236C9.86771 1.73048 9.87547 1.77133 9.875 1.8125V2.75ZM11.125 14.6473C11.1192 14.8091 11.0508 14.9624 10.9343 15.0749C10.8177 15.1873 10.662 15.2501 10.5 15.25H10.4773C10.3953 15.2471 10.3146 15.228 10.2399 15.1939C10.1652 15.1598 10.098 15.1113 10.0421 15.0512C9.98612 14.9911 9.94257 14.9205 9.91391 14.8436C9.88524 14.7666 9.87202 14.6848 9.875 14.6027L10.1875 5.85273C10.1904 5.77066 10.2095 5.68996 10.2436 5.61525C10.2777 5.54054 10.3262 5.47328 10.3863 5.41731C10.4464 5.36134 10.5169 5.31776 10.5939 5.28905C10.6708 5.26035 10.7527 5.24708 10.8348 5.25C10.9168 5.25292 10.9975 5.27199 11.0722 5.3061C11.147 5.34021 11.2142 5.3887 11.2702 5.4488C11.3262 5.50891 11.3697 5.57945 11.3984 5.65639C11.4272 5.73334 11.4404 5.81519 11.4375 5.89727L11.125 14.6473Z" fill="#828282"/>
</svg>
