<svg xmlns="http://www.w3.org/2000/svg" x="0px" y="0px"
width="24" height="24"
viewBox="0 0 172 172"
style=" fill:#000000;"><g fill="none" fill-rule="nonzero" stroke="none" stroke-width="1" stroke-linecap="butt" stroke-linejoin="miter" stroke-miterlimit="10" stroke-dasharray="" stroke-dashoffset="0" font-family="none" font-weight="none" font-size="none" text-anchor="none" style="mix-blend-mode: normal"><path d="M0,172v-172h172v172z" fill="none"></path><g fill="#dadada"><path d="M134.16,13.76h-96.32c-13.41062,0 -24.08,10.66938 -24.08,24.08v96.32c0,13.41063 10.66938,24.08 24.08,24.08h96.32c13.41063,0 24.08,-10.66937 24.08,-24.08v-96.32c0,-13.41062 -10.66937,-24.08 -24.08,-24.08zM144.48,134.16c0,5.84531 -4.47469,10.32 -10.32,10.32h-96.32c-5.84531,0 -10.32,-4.47469 -10.32,-10.32v-96.32c0,-5.84531 4.47469,-10.32 10.32,-10.32h96.32c5.84531,0 10.32,4.47469 10.32,10.32z"></path></g></g></svg>